<svg xmlns="http://www.w3.org/2000/svg" xmlns:xlink="http://www.w3.org/1999/xlink" version="1.1" x="0px" y="0px" width="128px" height="128px" viewBox="0 0 100 100" enable-background="new 0 0 100 100" xml:space="preserve">
<g fill="#cc0f16">
	<path d="M50,95C25.187,95,5,74.813,5,50C5,25.187,25.187,5,50,5c24.813,0,45,20.187,45,45C95,74.813,74.813,95,50,95z M50,15     c-19.299,0-35,15.701-35,35s15.701,35,35,35s35-15.701,35-35S69.299,15,50,15z"/>
	<polygon points="73.535,33.536 66.465,26.464 50,42.929 33.536,26.464 26.464,33.536 42.929,50 26.464,66.465 33.536,73.535     50,57.07 66.465,73.535 73.535,66.465 57.07,50   "/>
</g>
</svg>