<svg version="1.0" xmlns:xlink="http://www.w3.org/1999/xlink" width="256px" height="256px" viewBox="-13 -13 52 52" style="enable-background:new 0 0 26 26;">
<g fill="#ffffff">
	<path d="M21.687,15.388c-0.822,0.746-3.885,3.302-7.414,3.376l0,0c-2.392,0.052-3.605-0.681-3.605-0.681l1.026-3.731
		c0,0,0.067-0.281-0.187-0.165c-0.251,0.115-8.182,3.751-8.182,3.751s-0.153,0.065-0.056,0.207c0.085,0.132,4.343,6.554,5.081,7.662
		c0.069,0.106,0.127,0.097,0.163-0.017c0.19-0.606,0.81-2.565,1.068-3.467c8.661,1.55,11.685-5.378,12.227-6.864
		C21.874,15.283,21.826,15.257,21.687,15.388z"></path>
	<path d="M22.509,7.769l-5.063-7.643c0,0-0.169-0.203-0.257,0.038c-0.221,0.706-0.803,2.544-1.054,3.411
		C7.502,2.029,4.393,8.796,3.767,10.457c-0.085,0.229-0.019,0.249,0.186,0.069c0.95-0.847,3.969-3.268,7.428-3.342
		c2.426-0.049,3.658,0.69,3.658,0.69l-1.06,3.845c0,0-0.067,0.245,0.188,0.115c1.359-0.681,8.034-3.674,8.259-3.787
		C22.595,7.966,22.509,7.769,22.509,7.769z"></path>
</g>
</svg>
